<svg width="29" height="28" viewBox="0 0 29 28" fill="none" xmlns="http://www.w3.org/2000/svg">
<path d="M8.238 11.9584C9.17874 11.9584 10.0276 11.4382 10.6081 10.698C11.5101 9.54785 12.647 8.59067 13.9465 7.89862C14.789 7.44994 15.52 6.78337 15.8745 5.89712C16.1226 5.27699 16.25 4.61522 16.25 3.94732V3.20837C16.25 2.72512 16.6418 2.33337 17.125 2.33337C18.5747 2.33337 19.75 3.50863 19.75 4.95837C19.75 6.30194 19.4472 7.57478 18.9061 8.71236C18.5962 9.36376 19.0309 10.2084 19.7522 10.2084M19.7522 10.2084H23.399C24.5968 10.2084 25.6689 11.018 25.7957 12.209C25.8481 12.7016 25.875 13.2019 25.875 13.7084C25.875 17.0306 24.7178 20.0825 22.7845 22.4831C22.3323 23.0446 21.6332 23.3334 20.9123 23.3334H16.227C15.6627 23.3334 15.1021 23.2424 14.5668 23.064L10.9332 21.8528C10.3979 21.6743 9.83732 21.5834 9.27304 21.5834H7.38824M19.7522 10.2084H17.125M7.38824 21.5834C7.48485 21.822 7.58999 22.0564 7.70327 22.2859C7.93326 22.7521 7.61223 23.3334 7.09245 23.3334H6.03337C4.99654 23.3334 4.0349 22.729 3.73232 21.7373C3.33743 20.4431 3.125 19.0693 3.125 17.6459C3.125 15.8347 3.46894 14.1038 4.09507 12.515C4.45097 11.6119 5.36189 11.0834 6.33258 11.0834H7.5608C8.11138 11.0834 8.43019 11.7319 8.14435 12.2025C7.1802 13.7898 6.625 15.653 6.625 17.6459C6.625 19.0383 6.89604 20.3674 7.38824 21.5834Z" stroke="white" stroke-width="2" stroke-linecap="round" stroke-linejoin="round"/>
</svg>
