<svg width="30" height="31" viewBox="0 0 30 31" fill="none" xmlns="http://www.w3.org/2000/svg">
<path d="M23.75 14.25H16.25V6.75C16.25 6.41848 16.1183 6.10054 15.8839 5.86612C15.6495 5.6317 15.3315 5.5 15 5.5C14.6685 5.5 14.3505 5.6317 14.1161 5.86612C13.8817 6.10054 13.75 6.41848 13.75 6.75V14.25H6.25C5.91848 14.25 5.60054 14.3817 5.36612 14.6161C5.1317 14.8505 5 15.1685 5 15.5C5 15.8315 5.1317 16.1495 5.36612 16.3839C5.60054 16.6183 5.91848 16.75 6.25 16.75H13.75V24.25C13.75 24.5815 13.8817 24.8995 14.1161 25.1339C14.3505 25.3683 14.6685 25.5 15 25.5C15.3315 25.5 15.6495 25.3683 15.8839 25.1339C16.1183 24.8995 16.25 24.5815 16.25 24.25V16.75H23.75C24.0815 16.75 24.3995 16.6183 24.6339 16.3839C24.8683 16.1495 25 15.8315 25 15.5C25 15.1685 24.8683 14.8505 24.6339 14.6161C24.3995 14.3817 24.0815 14.25 23.75 14.25Z" fill="white"/>
</svg>
