<svg width="25" height="24" viewBox="0 0 25 24" fill="none" xmlns="http://www.w3.org/2000/svg">
<path d="M5.81641 4.65724C6.1935 4.55472 6.59029 4.5 6.99986 4.5H17.4999C17.9094 4.5 18.3062 4.55472 18.6833 4.65724C18.1906 3.67454 17.174 3 15.9999 3H8.49986C7.3257 3 6.3091 3.67454 5.81641 4.65724Z" fill="#999999"/>
<path d="M2.5 12C2.5 10.3431 3.84315 9 5.5 9H19C20.6569 9 22 10.3431 22 12V18C22 19.6569 20.6569 21 19 21H5.5C3.84315 21 2.5 19.6569 2.5 18V12Z" fill="#999999"/>
<path d="M5.49986 7.5C5.09029 7.5 4.6935 7.55472 4.31641 7.65724C4.8091 6.67454 5.8257 6 6.99986 6H17.4999C18.674 6 19.6906 6.67454 20.1833 7.65724C19.8062 7.55472 19.4094 7.5 18.9999 7.5H5.49986Z" fill="#999999"/>
</svg>
