<svg width="25" height="24" viewBox="0 0 25 24" fill="none" xmlns="http://www.w3.org/2000/svg">
<path d="M12.5996 15C14.2565 15 15.5996 13.6569 15.5996 12C15.5996 10.3431 14.2565 9 12.5996 9C10.9428 9 9.59961 10.3431 9.59961 12C9.59961 13.6569 10.9428 15 12.5996 15Z" fill="#999999"/>
<path fill-rule="evenodd" clip-rule="evenodd" d="M1.92302 11.4467C3.41027 6.97571 7.62752 3.75 12.6001 3.75C17.5704 3.75 21.7861 6.97271 23.2752 11.4405C23.3955 11.8015 23.3956 12.1922 23.2755 12.5533C21.7882 17.0243 17.571 20.25 12.5984 20.25C7.62808 20.25 3.41245 17.0273 1.92335 12.5595C1.80301 12.1985 1.80289 11.8078 1.92302 11.4467ZM17.8496 12C17.8496 14.8995 15.4991 17.25 12.5996 17.25C9.70011 17.25 7.34961 14.8995 7.34961 12C7.34961 9.1005 9.70011 6.75 12.5996 6.75C15.4991 6.75 17.8496 9.1005 17.8496 12Z" fill="#999999"/>
</svg>
